<!DOCTYPE svg PUBLIC "-//W3C//DTD SVG 1.1//EN" "http://www.w3.org/Graphics/SVG/1.1/DTD/svg11.dtd">
<!-- Uploaded to: SVG Repo, www.svgrepo.com, Transformed by: SVG Repo Mixer Tools -->
<svg height="800px" width="800px" version="1.1" id="Layer_1" xmlns="http://www.w3.org/2000/svg" xmlns:xlink="http://www.w3.org/1999/xlink" viewBox="0 0 508.4 508.4" xml:space="preserve" fill="#000000">
<g id="SVGRepo_bgCarrier" stroke-width="0"/>
<g id="SVGRepo_tracerCarrier" stroke-linecap="round" stroke-linejoin="round"/>
<g id="SVGRepo_iconCarrier"> <g> <path style="fill:#F4EFEF;" d="M464.8,373.6c8.8,0,17.2-4,23.6-9.2L311.2,220.8c-0.8-0.8-0.8-2-0.4-2.8s2-1.2,2.8-0.4l177.6,143.6 c6.8-6.8,10.8-16.4,10.8-26.8v-270c0-10.4-4-19.6-10.8-26.8L255.6,228.4c-0.4,0.4-0.8,0.4-1.2,0.4s-0.8,0-1.2-0.4L17.2,37.6 C10.4,44.4,6,54,6,64.4v270c0,10.4,4.4,19.6,11.2,26.8l177.6-143.6c0.8-0.8,2-0.4,2.8,0.4s0.4,2-0.4,2.8L20,364.8 c6.4,5.2,14.8,9.2,23.6,9.2h421.2V373.6z"/> <path style="fill:#F4EFEF;" d="M464.8,25.6H44c-8.8,0-17.2,4-23.6,9.2v0.4l234,189.6l234-189.2v-0.8C482,29.2,474,25.6,464.8,25.6z "/> </g> <path style="fill:#f3d159;" d="M464.8,25.6H432L254.4,170.8L77.6,25.6H44c-8.8,0-17.2,4-23.6,9.2v0.4l234,189.6l234-189.2v-0.8 C482,29.2,474,25.6,464.8,25.6z"/> <circle style="fill:#4ecab1;" cx="254.8" cy="374" r="108.8"/> <path d="M464.8,379.6h-98.4c-2.4,0-4-1.6-4-4s1.6-4,4-4h98.4c19.2,0,35.6-16.8,35.6-37.2v-270c0-20-16.4-37.2-35.6-37.2H44 C24.4,27.2,8,44,8,64.4v270c0,20,16.4,37.2,36,37.2h98c2.4,0,4,1.6,4,4s-1.6,4-4,4H44c-23.6,0-44-20.8-44-45.2v-270 C0,40,20,19.2,44,19.2h420.8c23.6,0,43.6,20.8,43.6,45.2v270C508.4,358.8,488.4,379.6,464.8,379.6z"/> <path d="M17.6,367.6c-1.2,0-2.4-0.4-3.2-1.6c-1.2-1.6-1.2-4.4,0.4-5.6l178.8-144.8c1.6-1.2,4.4-1.2,5.6,0.4c1.2,1.6,1.2,4.4-0.4,5.6 L20,366.4C19.2,367.6,18.4,367.6,17.6,367.6z"/> <path d="M490,366c-0.8,0-1.6-0.4-2.4-0.8L310.4,222.4c-1.6-1.2-2-4-0.8-5.6s4-2,5.6-0.4l177.2,142.8c1.6,1.2,2,4,0.8,5.6 C492,365.2,491.2,366,490,366z"/> <path d="M254.4,231.2c-0.8,0-1.6-0.4-2.4-0.8L14.8,38.4c-1.6-1.2-2-4-0.4-5.6c1.2-1.6,4-2,5.6-0.4l234.4,190l234.4-190 c1.6-1.2,4.4-1.2,5.6,0.4s1.2,4.4-0.4,5.6l-237.2,192C256.4,231.2,255.6,231.2,254.4,231.2z"/> <path d="M254.4,176.4c-0.8,0-1.6-0.4-2.4-0.8L70,28.4c-1.6-1.2-2-4-0.4-5.6c1.2-1.6,4-2,5.6-0.4l179.6,145.2l22-17.6 c1.6-1.2,4.4-1.2,5.6,0.4c1.2,1.6,1.2,4.4-0.4,5.6l-24.4,19.6C256.4,176,255.6,176.4,254.4,176.4z"/> <path d="M310,131.6c-1.2,0-2.4-0.4-3.2-1.6c-1.2-1.6-1.2-4.4,0.4-5.6L434,22c1.6-1.2,4.4-1.2,5.6,0.4c1.2,1.6,1.2,4.4-0.4,5.6 L312.4,130.4C311.6,131.2,310.8,131.6,310,131.6z"/> <path d="M254.4,489.2c-63.2,0-114.8-51.6-114.8-114.8c0-63.2,51.6-114.8,114.8-114.8c22,0,43.6,6.4,62,18.4c2,1.2,2.4,3.6,1.2,5.6 s-3.6,2.4-5.6,1.2c-17.2-11.2-37.2-16.8-57.6-16.8c-58.8,0-106.8,48-106.8,106.8s48,106.8,106.8,106.8s106.8-48,106.8-106.8 c0-23.2-7.2-45.2-21.2-63.6c-1.2-1.6-0.8-4.4,0.8-5.6s4.4-0.8,5.6,0.8c14.8,20,22.8,43.6,22.8,68.4 C369.6,437.6,318,489.2,254.4,489.2z"/> <path d="M245.6,409.6c-1.2,0-2-0.4-2.8-1.2l-35.6-35.6c-1.6-1.6-1.6-4,0-5.6s4-1.6,5.6,0l35.6,35.6c1.6,1.6,1.6,4,0,5.6 C247.6,409.2,246.8,409.6,245.6,409.6z"/> <path d="M245.6,409.6c-1.2,0-2-0.4-2.8-1.2c-1.6-1.6-1.6-4,0-5.6l56.4-56.4c1.6-1.6,4-1.6,5.6,0s1.6,4,0,5.6l-56.4,56.4 C247.6,409.2,246.8,409.6,245.6,409.6z"/> </g>
</svg>